<svg width="299" height="262" viewBox="0 0 299 262" fill="none" xmlns="http://www.w3.org/2000/svg">
<path fill-rule="evenodd" clip-rule="evenodd" d="M84.1576 0C78.4451 0 73.1594 3.02505 70.2657 7.95329L2.22246 123.775C-0.759719 128.851 -0.740048 135.151 2.27754 140.209L70.248 254.141C73.1574 259.014 78.4116 262 84.0868 262H215.796C221.503 262 226.785 258.981 229.68 254.06L296.77 140.128C299.724 135.111 299.744 128.89 296.825 123.854L229.665 8.03202C226.781 3.06047 221.47 0 215.726 0H84.1576ZM101.488 34.2615C97.2627 34.2615 93.3422 36.4698 91.1528 40.0873L45.1395 116.052C40.1784 124.241 46.247 134.677 55.8151 134.407L143.003 131.955C147.582 131.825 151.841 134.299 154.001 138.341L194.506 214.15C199.025 222.608 211.117 222.688 215.747 214.29L257.968 137.721C260.014 134.011 259.97 129.502 257.852 125.832L208.487 40.3057C206.327 36.5662 202.337 34.2615 198.019 34.2615H101.488Z" fill="black"/>
</svg>
